<svg xmlns="http://www.w3.org/2000/svg" viewBox="0 0 64 64" role="img">
  <defs>
    <linearGradient id="gbroadcastmic" x1="0%" y1="0%" x2="100%" y2="100%">
      <stop offset="0%" stop-color="#1a2840"/>
      <stop offset="100%" stop-color="#0a0c0a"/>
    </linearGradient>
    <filter id="shgbroadcastmic">
      <feDropShadow dx="0" dy="1" stdDeviation="1.5" flood-color="#000" flood-opacity="0.6"/>
    </filter>
  </defs>
  <path d="M16 50 L24 42 L40 42 L48 50 L40 58 L24 58 Z" fill="#5a1818" filter="url(#shgbroadcastmic)"/>
  <path d="M20 50 L32 44 L44 50 L32 55 Z" fill="#90c0ff" opacity="0.75"/>
  <circle cx="32" cy="28" r="23" fill="#1a1f18" stroke="#5080c0" stroke-width="2.5"/>
  <circle cx="32" cy="28" r="18" fill="url(#gbroadcastmic)" stroke="#5080c0" stroke-width="1.5" opacity="0.95"/>
  <circle cx="32" cy="28" r="14" fill="none" stroke="#90c0ff" stroke-width="0.8" opacity="0.5"/>
  <g transform="translate(32, 27.5)"><g transform="translate(0,-1)"><rect x="-3.5" y="-8" width="7" height="11" rx="3.5" fill="#1a1f18" stroke="#90c0ff" stroke-width="1.4"/><path d="M-8 0 Q-8 8 0 8 Q8 8 8 0" fill="none" stroke="#90c0ff" stroke-width="1.4"/><line x1="0" y1="8" x2="0" y2="11" stroke="#90c0ff" stroke-width="1.4"/><line x1="-4.5" y1="11" x2="4.5" y2="11" stroke="#90c0ff" stroke-width="1.4"/></g></g>
</svg>